<svg xmlns="http://www.w3.org/2000/svg" width="980" height="220" viewBox="0 0 980 220" role="img" aria-labelledby="title desc">
  <title id="title">Current lunar phase: WAXING CRESCENT</title>
  <desc id="desc">5% illuminated on 2026-09-13; approximate geocentric model.</desc>
  <defs>
    <linearGradient id="moon-light-light" x1="0" y1="0" x2="1" y2="1">
      <stop offset="0" stop-color="#D6E66B"/>
      <stop offset="0.68" stop-color="#4F6900"/>
      <stop offset="1" stop-color="#718078"/>
    </linearGradient>
    <clipPath id="moon-clip-light"><circle cx="190" cy="110" r="72"/></clipPath>
  </defs>

  <path d="M22 18V86M22 148V202M22 202H190M250 202H350" fill="none" stroke="#17201D" stroke-opacity="0.58" stroke-width="1.5" vector-effect="non-scaling-stroke"/>
  <path d="M958 58V112M958 150V202M958 202H824M760 202H690" fill="none" stroke="#17201D" stroke-opacity="0.58" stroke-width="1.5" vector-effect="non-scaling-stroke"/>
  <path d="M42 18V36M58 18V30M936 76H958" fill="none" stroke="#5A35C8" stroke-opacity="0.56" stroke-width="1.2" vector-effect="non-scaling-stroke"/>

  <text x="46" y="44" fill="#59635D" font-family="ui-monospace, Consolas, monospace" font-size="10" font-weight="700" text-anchor="start" letter-spacing="1.2">LUNAR STATUS</text>

  <path d="M190 24V38M190 182V196M104 110H118M262 110H276" fill="none" stroke="#59635D" stroke-opacity="0.4" stroke-width="1" vector-effect="non-scaling-stroke"/>
  <circle cx="190" cy="110" r="84" fill="none" stroke="#5A35C8" stroke-opacity="0.32" stroke-width="1" stroke-dasharray="2 12" vector-effect="non-scaling-stroke"/>
  <circle cx="190" cy="110" r="76" fill="none" stroke="#59635D" stroke-opacity="0.25" stroke-width="1" stroke-dasharray="1 9" vector-effect="non-scaling-stroke"/>
  <circle cx="190" cy="110" r="72" fill="#28362E" fill-opacity="0.95" stroke="#17201D" stroke-opacity="0.76" stroke-width="1.5" vector-effect="non-scaling-stroke"/>
  <path d="M190.00 38.00 L204.62 39.50 L210.57 41.00 L215.05 42.50 L218.77 44.00 L222.00 45.50 L224.86 47.00 L227.44 48.50 L229.80 50.00 L231.97 51.50 L233.99 53.00 L235.87 54.50 L237.62 56.00 L239.27 57.50 L240.82 59.00 L242.29 60.50 L243.67 62.00 L244.97 63.50 L246.20 65.00 L247.37 66.50 L248.48 68.00 L249.53 69.50 L250.52 71.00 L251.46 72.50 L252.35 74.00 L253.20 75.50 L253.99 77.00 L254.74 78.50 L255.45 80.00 L256.12 81.50 L256.75 83.00 L257.33 84.50 L257.88 86.00 L258.39 87.50 L258.87 89.00 L259.31 90.50 L259.71 92.00 L260.08 93.50 L260.42 95.00 L260.72 96.50 L260.99 98.00 L261.23 99.50 L261.44 101.00 L261.61 102.50 L261.75 104.00 L261.86 105.50 L261.94 107.00 L261.98 108.50 L262.00 110.00 L261.98 111.50 L261.94 113.00 L261.86 114.50 L261.75 116.00 L261.61 117.50 L261.44 119.00 L261.23 120.50 L260.99 122.00 L260.72 123.50 L260.42 125.00 L260.08 126.50 L259.71 128.00 L259.31 129.50 L258.87 131.00 L258.39 132.50 L257.88 134.00 L257.33 135.50 L256.75 137.00 L256.12 138.50 L255.45 140.00 L254.74 141.50 L253.99 143.00 L253.20 144.50 L252.35 146.00 L251.46 147.50 L250.52 149.00 L249.53 150.50 L248.48 152.00 L247.37 153.50 L246.20 155.00 L244.97 156.50 L243.67 158.00 L242.29 159.50 L240.82 161.00 L239.27 162.50 L237.62 164.00 L235.87 165.50 L233.99 167.00 L231.97 168.50 L229.80 170.00 L227.44 171.50 L224.86 173.00 L222.00 174.50 L218.77 176.00 L215.05 177.50 L210.57 179.00 L204.62 180.50 L190.00 182.00 L190.00 182.00 L203.32 180.50 L208.73 179.00 L212.82 177.50 L216.21 176.00 L219.14 174.50 L221.75 173.00 L224.10 171.50 L226.25 170.00 L228.23 168.50 L230.06 167.00 L231.77 165.50 L233.37 164.00 L234.88 162.50 L236.29 161.00 L237.62 159.50 L238.88 158.00 L240.07 156.50 L241.19 155.00 L242.25 153.50 L243.26 152.00 L244.22 150.50 L245.12 149.00 L245.98 147.50 L246.79 146.00 L247.56 144.50 L248.28 143.00 L248.97 141.50 L249.61 140.00 L250.22 138.50 L250.79 137.00 L251.33 135.50 L251.83 134.00 L252.29 132.50 L252.72 131.00 L253.12 129.50 L253.49 128.00 L253.83 126.50 L254.14 125.00 L254.41 123.50 L254.66 122.00 L254.87 120.50 L255.06 119.00 L255.22 117.50 L255.35 116.00 L255.45 114.50 L255.52 113.00 L255.56 111.50 L255.58 110.00 L255.56 108.50 L255.52 107.00 L255.45 105.50 L255.35 104.00 L255.22 102.50 L255.06 101.00 L254.87 99.50 L254.66 98.00 L254.41 96.50 L254.14 95.00 L253.83 93.50 L253.49 92.00 L253.12 90.50 L252.72 89.00 L252.29 87.50 L251.83 86.00 L251.33 84.50 L250.79 83.00 L250.22 81.50 L249.61 80.00 L248.97 78.50 L248.28 77.00 L247.56 75.50 L246.79 74.00 L245.98 72.50 L245.12 71.00 L244.22 69.50 L243.26 68.00 L242.25 66.50 L241.19 65.00 L240.07 63.50 L238.88 62.00 L237.62 60.50 L236.29 59.00 L234.88 57.50 L233.37 56.00 L231.77 54.50 L230.06 53.00 L228.23 51.50 L226.25 50.00 L224.10 48.50 L221.75 47.00 L219.14 45.50 L216.21 44.00 L212.82 42.50 L208.73 41.00 L203.32 39.50 L190.00 38.00 Z" fill="url(#moon-light-light)"/>
  <g clip-path="url(#moon-clip-light)">
    <path d="M146.80 92.72 C155.44 75.44 178.48 72.56 191.44 85.52 C201.52 97.04 187.12 108.56 169.84 106.40 C156.88 104.96 149.68 99.92 146.80 92.72 Z" fill="#718078" fill-opacity="0.16"/>
    <path d="M195.76 131.60 C210.16 117.20 234.64 120.80 240.40 137.36 C234.64 151.76 208.72 151.76 195.76 131.60 Z" fill="#718078" fill-opacity="0.11"/>
    <path d="M130.96 72.56 C155.44 69.68 177.04 75.44 197.20 72.56 S228.88 69.68 249.04 72.91" fill="none" stroke="#F8FAF7" stroke-opacity="0.13" stroke-width="0.75"/>
    <path d="M130.96 92.72 C155.44 88.04 177.04 97.40 197.20 92.72 S228.88 88.04 249.04 93.28" fill="none" stroke="#F8FAF7" stroke-opacity="0.22" stroke-width="1.1"/>
    <path d="M130.96 115.76 C155.44 112.88 177.04 118.64 197.20 115.76 S228.88 112.88 249.04 116.11" fill="none" stroke="#F8FAF7" stroke-opacity="0.13" stroke-width="0.75"/>
    <path d="M130.96 138.08 C155.44 133.40 177.04 142.76 197.20 138.08 S228.88 133.40 249.04 138.64" fill="none" stroke="#F8FAF7" stroke-opacity="0.13" stroke-width="0.75"/>
  </g>
  <circle cx="190" cy="110" r="72" fill="none" stroke="#F8FAF7" stroke-opacity="0.72" stroke-width="1.1" vector-effect="non-scaling-stroke"/>

  <path d="M340 54H936" fill="none" stroke="#59635D" stroke-opacity="0.28" stroke-width="1" vector-effect="non-scaling-stroke"/>
  <text x="340" y="96" fill="#17201D" font-family="ui-monospace, Consolas, monospace" font-size="35" font-weight="800" text-anchor="start" letter-spacing="0.4">WAXING CRESCENT</text>
  <text x="340" y="150" fill="#4F6900" font-family="ui-monospace, Consolas, monospace" font-size="62" font-weight="800" text-anchor="start" letter-spacing="0">5%</text>
  <path d="M340 168H484" fill="none" stroke="#4F6900" stroke-opacity="0.78" stroke-width="2.4" vector-effect="non-scaling-stroke"/>
  <g fill="#59635D" shape-rendering="crispEdges" aria-label="2026-09-13 / UTC"><rect x="340.00" y="181.00" width="2.00" height="2.00"/><rect x="342.00" y="181.00" width="2.00" height="2.00"/><rect x="344.00" y="183.00" width="2.00" height="2.00"/><rect x="342.00" y="185.00" width="2.00" height="2.00"/><rect x="340.00" y="187.00" width="2.00" height="2.00"/><rect x="340.00" y="189.00" width="2.00" height="2.00"/><rect x="342.00" y="189.00" width="2.00" height="2.00"/><rect x="344.00" y="189.00" width="2.00" height="2.00"/><rect x="348.00" y="181.00" width="2.00" height="2.00"/><rect x="350.00" y="181.00" width="2.00" height="2.00"/><rect x="352.00" y="181.00" width="2.00" height="2.00"/><rect x="348.00" y="183.00" width="2.00" height="2.00"/><rect x="352.00" y="183.00" width="2.00" height="2.00"/><rect x="348.00" y="185.00" width="2.00" height="2.00"/><rect x="352.00" y="185.00" width="2.00" height="2.00"/><rect x="348.00" y="187.00" width="2.00" height="2.00"/><rect x="352.00" y="187.00" width="2.00" height="2.00"/><rect x="348.00" y="189.00" width="2.00" height="2.00"/><rect x="350.00" y="189.00" width="2.00" height="2.00"/><rect x="352.00" y="189.00" width="2.00" height="2.00"/><rect x="356.00" y="181.00" width="2.00" height="2.00"/><rect x="358.00" y="181.00" width="2.00" height="2.00"/><rect x="360.00" y="183.00" width="2.00" height="2.00"/><rect x="358.00" y="185.00" width="2.00" height="2.00"/><rect x="356.00" y="187.00" width="2.00" height="2.00"/><rect x="356.00" y="189.00" width="2.00" height="2.00"/><rect x="358.00" y="189.00" width="2.00" height="2.00"/><rect x="360.00" y="189.00" width="2.00" height="2.00"/><rect x="366.00" y="181.00" width="2.00" height="2.00"/><rect x="368.00" y="181.00" width="2.00" height="2.00"/><rect x="364.00" y="183.00" width="2.00" height="2.00"/><rect x="364.00" y="185.00" width="2.00" height="2.00"/><rect x="366.00" y="185.00" width="2.00" height="2.00"/><rect x="368.00" y="185.00" width="2.00" height="2.00"/><rect x="364.00" y="187.00" width="2.00" height="2.00"/><rect x="368.00" y="187.00" width="2.00" height="2.00"/><rect x="364.00" y="189.00" width="2.00" height="2.00"/><rect x="366.00" y="189.00" width="2.00" height="2.00"/><rect x="368.00" y="189.00" width="2.00" height="2.00"/><rect x="372.00" y="185.00" width="2.00" height="2.00"/><rect x="374.00" y="185.00" width="2.00" height="2.00"/><rect x="376.00" y="185.00" width="2.00" height="2.00"/><rect x="380.00" y="181.00" width="2.00" height="2.00"/><rect x="382.00" y="181.00" width="2.00" height="2.00"/><rect x="384.00" y="181.00" width="2.00" height="2.00"/><rect x="380.00" y="183.00" width="2.00" height="2.00"/><rect x="384.00" y="183.00" width="2.00" height="2.00"/><rect x="380.00" y="185.00" width="2.00" height="2.00"/><rect x="384.00" y="185.00" width="2.00" height="2.00"/><rect x="380.00" y="187.00" width="2.00" height="2.00"/><rect x="384.00" y="187.00" width="2.00" height="2.00"/><rect x="380.00" y="189.00" width="2.00" height="2.00"/><rect x="382.00" y="189.00" width="2.00" height="2.00"/><rect x="384.00" y="189.00" width="2.00" height="2.00"/><rect x="388.00" y="181.00" width="2.00" height="2.00"/><rect x="390.00" y="181.00" width="2.00" height="2.00"/><rect x="392.00" y="181.00" width="2.00" height="2.00"/><rect x="388.00" y="183.00" width="2.00" height="2.00"/><rect x="392.00" y="183.00" width="2.00" height="2.00"/><rect x="388.00" y="185.00" width="2.00" height="2.00"/><rect x="390.00" y="185.00" width="2.00" height="2.00"/><rect x="392.00" y="185.00" width="2.00" height="2.00"/><rect x="392.00" y="187.00" width="2.00" height="2.00"/><rect x="388.00" y="189.00" width="2.00" height="2.00"/><rect x="390.00" y="189.00" width="2.00" height="2.00"/><rect x="396.00" y="185.00" width="2.00" height="2.00"/><rect x="398.00" y="185.00" width="2.00" height="2.00"/><rect x="400.00" y="185.00" width="2.00" height="2.00"/><rect x="406.00" y="181.00" width="2.00" height="2.00"/><rect x="404.00" y="183.00" width="2.00" height="2.00"/><rect x="406.00" y="183.00" width="2.00" height="2.00"/><rect x="406.00" y="185.00" width="2.00" height="2.00"/><rect x="406.00" y="187.00" width="2.00" height="2.00"/><rect x="404.00" y="189.00" width="2.00" height="2.00"/><rect x="406.00" y="189.00" width="2.00" height="2.00"/><rect x="408.00" y="189.00" width="2.00" height="2.00"/><rect x="412.00" y="181.00" width="2.00" height="2.00"/><rect x="414.00" y="181.00" width="2.00" height="2.00"/><rect x="416.00" y="183.00" width="2.00" height="2.00"/><rect x="414.00" y="185.00" width="2.00" height="2.00"/><rect x="416.00" y="187.00" width="2.00" height="2.00"/><rect x="412.00" y="189.00" width="2.00" height="2.00"/><rect x="414.00" y="189.00" width="2.00" height="2.00"/><rect x="432.00" y="181.00" width="2.00" height="2.00"/><rect x="432.00" y="183.00" width="2.00" height="2.00"/><rect x="430.00" y="185.00" width="2.00" height="2.00"/><rect x="428.00" y="187.00" width="2.00" height="2.00"/><rect x="428.00" y="189.00" width="2.00" height="2.00"/><rect x="444.00" y="181.00" width="2.00" height="2.00"/><rect x="448.00" y="181.00" width="2.00" height="2.00"/><rect x="444.00" y="183.00" width="2.00" height="2.00"/><rect x="448.00" y="183.00" width="2.00" height="2.00"/><rect x="444.00" y="185.00" width="2.00" height="2.00"/><rect x="448.00" y="185.00" width="2.00" height="2.00"/><rect x="444.00" y="187.00" width="2.00" height="2.00"/><rect x="448.00" y="187.00" width="2.00" height="2.00"/><rect x="444.00" y="189.00" width="2.00" height="2.00"/><rect x="446.00" y="189.00" width="2.00" height="2.00"/><rect x="448.00" y="189.00" width="2.00" height="2.00"/><rect x="452.00" y="181.00" width="2.00" height="2.00"/><rect x="454.00" y="181.00" width="2.00" height="2.00"/><rect x="456.00" y="181.00" width="2.00" height="2.00"/><rect x="454.00" y="183.00" width="2.00" height="2.00"/><rect x="454.00" y="185.00" width="2.00" height="2.00"/><rect x="454.00" y="187.00" width="2.00" height="2.00"/><rect x="454.00" y="189.00" width="2.00" height="2.00"/><rect x="460.00" y="181.00" width="2.00" height="2.00"/><rect x="462.00" y="181.00" width="2.00" height="2.00"/><rect x="464.00" y="181.00" width="2.00" height="2.00"/><rect x="460.00" y="183.00" width="2.00" height="2.00"/><rect x="460.00" y="185.00" width="2.00" height="2.00"/><rect x="460.00" y="187.00" width="2.00" height="2.00"/><rect x="460.00" y="189.00" width="2.00" height="2.00"/><rect x="462.00" y="189.00" width="2.00" height="2.00"/><rect x="464.00" y="189.00" width="2.00" height="2.00"/></g>
</svg>
